<svg width="141.732" height="141.732" xmlns="http://www.w3.org/2000/svg">

 <g>
  <rect fill="none" id="canvas_background" height="402" width="582" y="-1" x="-1"/>
 </g>
 <g>
  <path stroke="null" id="svg_1" d="m39.038942,84.936904c-18.808195,0.394338 -34.070209,13.131256 -35.398955,29.201947l17.805206,0l0.008573,-0.099061c0.857256,-10.383274 6.172243,-20.020736 14.965784,-27.134056c0.848683,-0.684852 1.723084,-1.342082 2.619393,-1.968831m7.101889,-32.115665c0,-2.293636 0.242889,-4.521549 0.696282,-6.648496c-2.105992,-1.142055 -4.440586,-1.783092 -6.899958,-1.783092c-9.297417,0 -16.833649,9.073578 -16.833649,20.268388c0,10.853813 7.083792,19.712124 15.983061,20.243623c4.002433,-2.788939 8.463974,-4.972084 13.209362,-6.491332c1.003942,-1.301124 1.859293,-2.764174 2.55367,-4.35105c-5.295937,-4.933984 -8.708768,-12.618807 -8.708768,-21.23804m46.077507,-0.240984c0,-14.200921 -9.560309,-25.711963 -21.35234,-25.711963c-11.792984,0 -21.35234,11.511042 -21.35234,25.711963c0,12.725488 7.680061,23.295454 17.765201,25.346201c-22.722045,1.510675 -40.829195,17.249895 -42.457029,36.934396l92.088338,0c-1.628786,-19.684501 -19.734984,-35.423721 -42.458934,-36.933443c10.08514,-2.051699 17.767106,-12.618807 17.767106,-25.347153m26.408246,12.803594c0,-11.19481 -7.536232,-20.26934 -16.834602,-20.26934c-2.460325,0 -4.792061,0.643894 -6.899005,1.783092c0.456251,2.126947 0.694377,4.355813 0.694377,6.648496c0,8.620185 -3.411879,16.304056 -8.70972,21.23423c0.69152,1.586876 1.549728,3.049926 2.550813,4.353908c4.747293,1.520201 9.207881,3.703346 13.209362,6.489427c8.906889,-0.528641 15.988776,-9.387905 15.988776,-20.239813m19.465425,49.47986c-1.329699,-16.070691 -16.59076,-28.806657 -35.398955,-29.200995c0.895356,0.625797 1.768805,1.282074 2.618441,1.967879c8.791636,7.114272 14.108528,16.750781 14.966736,27.131198l0.008573,0.099061l17.805206,0.002858l0,0z"/>
 </g>
</svg>