<svg xmlns="http://www.w3.org/2000/svg" width="32" height="32" viewBox="0 0 32 32">
  <g id="Group_26" data-name="Group 26" transform="translate(-2765.414 -827)">
    <g id="Group_18" data-name="Group 18" transform="translate(2765.414 827)">
      <path id="Path_807" data-name="Path 807" d="M147.32,234.947a16,16,0,1,1,16-16A16.018,16.018,0,0,1,147.32,234.947Zm0-30.281A14.281,14.281,0,1,0,161.6,218.947,14.3,14.3,0,0,0,147.32,204.666Z" transform="translate(-131.32 -202.947)" fill="#fff"/>
    </g>
    <g id="Group_19" data-name="Group 19" transform="translate(2777.832 834.793)">
      <path id="Path_808" data-name="Path 808" d="M152.758,222.616V231a.218.218,0,0,0,.218.218h3.112a.218.218,0,0,0,.218-.218V222.48h2.256a.218.218,0,0,0,.217-.2l.217-2.566a.219.219,0,0,0-.218-.237h-2.473v-1.82a.773.773,0,0,1,.772-.773h1.739a.218.218,0,0,0,.218-.218V214.1a.218.218,0,0,0-.218-.218H155.88A3.122,3.122,0,0,0,152.758,217v2.474H151.2a.218.218,0,0,0-.218.218v2.566a.218.218,0,0,0,.218.218h1.556Z" transform="translate(-150.984 -213.881)" fill="#fff" fill-rule="evenodd"/>
    </g>
  </g>
</svg>
