<svg xmlns="http://www.w3.org/2000/svg" width="45.31" height="36.108" viewBox="0 0 45.31 36.108">
  <path id="Path_810" data-name="Path 810" d="M1007.111,471.937a8.1,8.1,0,0,1-2.6,6.337,9.493,9.493,0,0,1-6.6,2.343,10.309,10.309,0,0,1-7.725-3.125q-3.039-3.125-3.038-9.2a26.132,26.132,0,0,1,1.649-9.809,26.674,26.674,0,0,1,3.993-6.944,23.932,23.932,0,0,1,4.861-4.6,20.439,20.439,0,0,1,4.427-2.43l4.34,6.076a16.773,16.773,0,0,0-6.162,5.121,13.341,13.341,0,0,0-2.344,8.073,8.326,8.326,0,0,1,1.91-.173,6.457,6.457,0,0,1,5.381,2.43A9.271,9.271,0,0,1,1007.111,471.937Zm25.345,0a8.1,8.1,0,0,1-2.6,6.337,9.492,9.492,0,0,1-6.6,2.343,10.31,10.31,0,0,1-7.726-3.125q-3.039-3.125-3.038-9.2a26.112,26.112,0,0,1,1.65-9.809,26.642,26.642,0,0,1,3.992-6.944,23.913,23.913,0,0,1,4.861-4.6,20.453,20.453,0,0,1,4.427-2.43l4.34,6.076a16.77,16.77,0,0,0-6.163,5.121,13.342,13.342,0,0,0-2.343,8.073,8.32,8.32,0,0,1,1.909-.173,6.458,6.458,0,0,1,5.382,2.43A9.274,9.274,0,0,1,1032.456,471.937Z" transform="translate(-987.146 -444.509)" fill="#f23f7e"/>
</svg>
