<svg xmlns="http://www.w3.org/2000/svg" width="49.312" height="39.298" viewBox="0 0 49.312 39.298">
  <path id="Path_811" data-name="Path 811" d="M1110.945,479.255a8.666,8.666,0,0,1,2.74-6.8A10.215,10.215,0,0,1,1120.77,470a11.641,11.641,0,0,1,8.6,3.306q3.3,3.308,3.306,9.919a29.237,29.237,0,0,1-1.795,10.77,28.683,28.683,0,0,1-4.346,7.652,24.8,24.8,0,0,1-5.384,5.007,23.966,23.966,0,0,1-4.912,2.645l-4.724-6.423a19.093,19.093,0,0,0,6.8-5.668,14.829,14.829,0,0,0,2.456-8.88,8.887,8.887,0,0,1-2.079.189,6.918,6.918,0,0,1-5.668-2.551A10.273,10.273,0,0,1,1110.945,479.255Zm27.585,0a8.668,8.668,0,0,1,2.74-6.8,10.215,10.215,0,0,1,7.085-2.456,11.642,11.642,0,0,1,8.6,3.306q3.3,3.308,3.306,9.919a29.239,29.239,0,0,1-1.795,10.77,28.673,28.673,0,0,1-4.346,7.652,24.809,24.809,0,0,1-5.384,5.007,23.978,23.978,0,0,1-4.913,2.645l-4.723-6.423a19.092,19.092,0,0,0,6.8-5.668,14.833,14.833,0,0,0,2.456-8.88,8.888,8.888,0,0,1-2.078.189,6.919,6.919,0,0,1-5.668-2.551A10.273,10.273,0,0,1,1138.53,479.255Z" transform="translate(-1110.945 -469.997)" fill="#f23f7e"/>
</svg>
