<svg xmlns="http://www.w3.org/2000/svg" width="32" height="32" viewBox="0 0 32 32">
  <g id="Group_553" data-name="Group 553" transform="translate(-928 -639)">
    <g id="Group_10" data-name="Group 10" transform="translate(928 639)">
      <path id="Path_801" data-name="Path 801" d="M65.784,234.947a16,16,0,1,1,16-16A16.018,16.018,0,0,1,65.784,234.947Zm0-30.281a14.281,14.281,0,1,0,14.281,14.281A14.3,14.3,0,0,0,65.784,204.666Z" transform="translate(-49.784 -202.947)" fill="#fff"/>
    </g>
    <g id="Group_16" data-name="Group 16" transform="translate(935.998 648.41)">
      <g id="Group_11" data-name="Group 11">
        <path id="Path_802" data-name="Path 802" d="M77.012,218.718a6.565,6.565,0,0,1-1.616.462c.261-.044.644-.515.8-.706a2.979,2.979,0,0,0,.538-.98c.014-.028.025-.063,0-.085a.091.091,0,0,0-.086.007,8.256,8.256,0,0,1-1.92.735.128.128,0,0,1-.132-.035,1.552,1.552,0,0,0-.168-.172,3.4,3.4,0,0,0-.93-.57,3.238,3.238,0,0,0-1.427-.23,3.409,3.409,0,0,0-1.353.382,3.494,3.494,0,0,0-1.092.892,3.363,3.363,0,0,0-.652,1.306,3.544,3.544,0,0,0-.035,1.379c.011.077,0,.088-.066.077a10.254,10.254,0,0,1-6.6-3.358c-.077-.088-.119-.088-.182.007a3.345,3.345,0,0,0,.57,3.953c.129.122.262.245.405.357a3.351,3.351,0,0,1-1.273-.357c-.077-.049-.116-.021-.122.066a1.993,1.993,0,0,0,.021.378,3.383,3.383,0,0,0,2.085,2.7,1.959,1.959,0,0,0,.423.129,3.768,3.768,0,0,1-1.248.039c-.091-.018-.126.028-.091.116a3.512,3.512,0,0,0,2.623,2.2c.119.021.238.021.357.049-.007.011-.014.011-.021.021a4.158,4.158,0,0,1-1.791.95,6.419,6.419,0,0,1-2.721.348c-.146-.022-.177-.02-.217,0s-.005.06.042.1c.185.123.374.231.566.336a8.992,8.992,0,0,0,1.819.728,9.688,9.688,0,0,0,9.405-2.2,9.87,9.87,0,0,0,2.6-7.2c0-.1.122-.161.2-.215a6.338,6.338,0,0,0,1.274-1.331.386.386,0,0,0,.078-.255v-.014C77.072,218.676,77.077,218.689,77.012,218.718Z" transform="translate(-61.07 -217.139)" fill="#fff"/>
      </g>
      <g id="Group_12" data-name="Group 12" transform="translate(4.752 13.123)">
        <path id="Path_803" data-name="Path 803" d="M70.518,243.228Z" transform="translate(-70.518 -243.228)" fill="#fff" fill-rule="evenodd"/>
      </g>
      <g id="Group_13" data-name="Group 13" transform="translate(4.63 13.123)">
        <path id="Path_804" data-name="Path 804" d="M70.4,243.228c-.021,0-.264,0,0,0Z" transform="translate(-70.275 -243.228)" fill="#fff" fill-rule="evenodd"/>
      </g>
      <g id="Group_14" data-name="Group 14" transform="translate(5.291 13.126)">
        <path id="Path_805" data-name="Path 805" d="M71.589,243.244c0-.027.283,0,0,0C71.589,243.23,71.624,243.244,71.589,243.244Z" transform="translate(-71.589 -243.232)" fill="#fff" fill-rule="evenodd"/>
      </g>
      <g id="Group_15" data-name="Group 15" transform="translate(10.885 0.019)">
        <path id="Path_806" data-name="Path 806" d="M82.775,217.177a.056.056,0,0,1-.066,0Z" transform="translate(-82.709 -217.177)" fill="#fff" fill-rule="evenodd"/>
      </g>
    </g>
  </g>
</svg>
